<svg width="24" height="24" viewBox="0 0 24 24" fill="none" xmlns="http://www.w3.org/2000/svg">
<path d="M11.3164 11.3202L16.7547 5.88194C17.1306 5.50605 17.7384 5.50605 18.1103 5.88194L19.014 6.78565C19.3899 7.16154 19.3899 7.76935 19.014 8.14123L15.1632 12L19.018 15.8548C19.3939 16.2307 19.3939 16.8385 19.018 17.2104L18.1143 18.1181C17.7384 18.494 17.1306 18.494 16.7587 18.1181L11.3204 12.6798C10.9406 12.3039 10.9406 11.6961 11.3164 11.3202ZM3.63885 12.6798L9.07715 18.1181C9.45303 18.494 10.0608 18.494 10.4327 18.1181L11.3364 17.2144C11.7123 16.8385 11.7123 16.2307 11.3364 15.8588L7.48164 12.004L11.3364 8.14923C11.7123 7.77335 11.7123 7.16553 11.3364 6.79365L10.4327 5.88993C10.0568 5.51405 9.44903 5.51405 9.07715 5.88993L3.63885 11.3282C3.26296 11.6961 3.26296 12.3039 3.63885 12.6798Z" fill="black"/>
</svg>
