<svg width="24" height="24" viewBox="0 0 24 24" fill="none" xmlns="http://www.w3.org/2000/svg">
<path d="M19.6872 13.2493L19.8706 11.301C20.0146 9.77096 20.0866 9.00591 19.8248 8.68966C19.6832 8.51858 19.4906 8.41376 19.2848 8.39568C18.9042 8.36226 18.4263 8.90632 17.4705 9.99446C16.9762 10.5572 16.729 10.8386 16.4533 10.8822C16.3006 10.9062 16.1449 10.8814 16.0038 10.8105C15.7492 10.6823 15.5794 10.3345 15.2399 9.63881L13.4505 5.97188C12.809 4.6573 12.4882 4 12 4C11.5118 4 11.191 4.6573 10.5495 5.97189L8.76006 9.63882C8.42056 10.3345 8.25081 10.6823 7.99621 10.8105C7.85514 10.8814 7.69947 10.9062 7.5467 10.8822C7.27098 10.8386 7.02382 10.5572 6.52949 9.99446C5.57366 8.90632 5.09574 8.36226 4.71519 8.39568C4.50933 8.41376 4.31678 8.51858 4.17519 8.68966C3.91344 9.00591 3.98544 9.77096 4.12945 11.301L4.3128 13.2493C4.61492 16.4594 4.76598 18.0644 5.71207 19.0322C6.65817 20 8.07614 20 10.9121 20H13.0879C15.9238 20 17.3418 20 18.2879 19.0322C19.234 18.0644 19.385 16.4594 19.6872 13.2493Z" fill="black"/>
</svg>
