<svg width="24" height="24" viewBox="0 0 24 24" fill="none" xmlns="http://www.w3.org/2000/svg">
<path d="M8.75011 12C9.58536 12 10.393 11.6088 11.0251 10.8989C11.6398 10.2064 12.0151 9.28295 12.0813 8.29943C12.152 7.25028 11.8469 6.28551 11.2225 5.58239C10.5981 4.87926 9.72511 4.5 8.75011 4.5C7.78203 4.5 6.90656 4.88608 6.28419 5.5875C5.65572 6.29574 5.34982 7.2588 5.42051 8.299C5.48835 9.2838 5.86332 10.2068 6.47675 10.8984C7.10725 11.6088 7.91446 12 8.75011 12Z" fill="black"/>
<path d="M3.39455 19.5H14.1053C14.2775 19.501 14.4476 19.4605 14.6025 19.3816C14.7575 19.3028 14.8931 19.1877 14.999 19.0453C15.1113 18.8909 15.1889 18.7118 15.2259 18.5215C15.2629 18.3312 15.2584 18.1345 15.2127 17.9463C14.8706 16.5055 14.0232 15.3106 12.7622 14.4912C11.643 13.7642 10.2183 13.3636 8.75011 13.3636C7.25309 13.3636 5.86575 13.7471 4.74004 14.4737C3.4762 15.2889 2.62755 16.4906 2.28712 17.9488C2.24197 18.1372 2.23795 18.3338 2.27538 18.5241C2.3128 18.7143 2.39069 18.8932 2.50324 19.0474C2.60903 19.1892 2.74435 19.3037 2.89885 19.3822C3.05334 19.4606 3.22291 19.5009 3.39455 19.5Z" fill="black"/>
<path d="M18 9L18 15M21 12L15 12" stroke="black" stroke-width="1.5" stroke-linecap="round"/>
</svg>
