<svg width="24" height="24" viewBox="0 0 24 24" fill="none" xmlns="http://www.w3.org/2000/svg">
<path fill-rule="evenodd" clip-rule="evenodd" d="M2.25 7C2.25 6.58579 2.58579 6.25 3 6.25H20C20.4142 6.25 20.75 6.58579 20.75 7C20.75 7.41421 20.4142 7.75 20 7.75H3C2.58579 7.75 2.25 7.41421 2.25 7ZM2.25 12C2.25 11.5858 2.58579 11.25 3 11.25H12C12.4142 11.25 12.75 11.5858 12.75 12C12.75 12.4142 12.4142 12.75 12 12.75H3C2.58579 12.75 2.25 12.4142 2.25 12ZM2.25 17C2.25 16.5858 2.58579 16.25 3 16.25H11C11.4142 16.25 11.75 16.5858 11.75 17C11.75 17.4142 11.4142 17.75 11 17.75H3C2.58579 17.75 2.25 17.4142 2.25 17Z" fill="black"/>
<path fill-rule="evenodd" clip-rule="evenodd" d="M16.9697 18.5303C17.2626 18.8232 17.7374 18.8232 18.0303 18.5303L20.5303 16.0303C20.8232 15.7374 20.8232 15.2626 20.5303 14.9697C20.2374 14.6768 19.7626 14.6768 19.4697 14.9697L18.25 16.1893V10C18.25 9.58579 17.9142 9.25 17.5 9.25C17.0858 9.25 16.75 9.58579 16.75 10V16.1893L15.5303 14.9697C15.2374 14.6768 14.7626 14.6768 14.4697 14.9697C14.1768 15.2626 14.1768 15.7374 14.4697 16.0303L16.9697 18.5303Z" fill="black"/>
</svg>
