<svg width="24" height="24" viewBox="0 0 24 24" fill="none" xmlns="http://www.w3.org/2000/svg">
<path d="M19.2738 13.5304L19.2579 13.5172L18.1871 12.6563C18.1193 12.6014 18.0652 12.5307 18.0292 12.4501C17.9932 12.3695 17.9764 12.2813 17.9801 12.1927V11.7906C17.9767 11.7026 17.9938 11.6151 18.0298 11.5351C18.0658 11.4552 18.1199 11.3851 18.1874 11.3308L19.2579 10.4696L19.2738 10.4563C19.4389 10.3154 19.5497 10.1188 19.5864 9.90173C19.623 9.68469 19.5832 9.46135 19.474 9.27165L18.0249 6.70122C18.0232 6.69879 18.0218 6.69623 18.0205 6.69357C17.9107 6.50649 17.7405 6.36475 17.5393 6.29295C17.3382 6.22115 17.1189 6.22383 16.9195 6.30052L16.9077 6.30504L15.6489 6.82435C15.5695 6.85728 15.4835 6.87038 15.3982 6.86258C15.3128 6.85478 15.2305 6.8263 15.158 6.77948C15.0467 6.70759 14.9336 6.63965 14.8187 6.57565C14.7442 6.53424 14.6802 6.47545 14.6319 6.40404C14.5837 6.33262 14.5525 6.25058 14.5408 6.16452L14.3511 4.78748L14.3471 4.76243C14.3058 4.54915 14.1941 4.35693 14.0309 4.21808C13.8677 4.07924 13.6628 4.00223 13.4507 4H10.5491C10.334 4.00071 10.1261 4.07921 9.96192 4.22167C9.79776 4.36414 9.6879 4.56143 9.65171 4.77878L9.64865 4.79826L9.45967 6.17809C9.44808 6.2639 9.41711 6.34575 9.36922 6.41712C9.32133 6.4885 9.25785 6.54743 9.18383 6.58922C9.0678 6.65322 8.95448 6.72104 8.84455 6.79165C8.77217 6.83819 8.69005 6.86645 8.60494 6.87413C8.51983 6.88181 8.43416 6.86868 8.35496 6.83583L7.0952 6.31409L7.08332 6.30922C6.88364 6.23244 6.66402 6.22986 6.46268 6.30193C6.26133 6.374 6.091 6.51615 5.98133 6.70365L5.97691 6.7113L4.52579 9.28348C4.41642 9.47337 4.3765 9.69695 4.41317 9.91425C4.44985 10.1315 4.56072 10.3284 4.72597 10.4696L4.74192 10.4828L5.8127 11.3437C5.88051 11.3986 5.93463 11.4693 5.97061 11.5499C6.00658 11.6305 6.0234 11.7187 6.01966 11.8073V12.2094C6.02306 12.2974 6.00604 12.3849 5.97 12.4649C5.93397 12.5448 5.87994 12.6149 5.81236 12.6692L4.74192 13.5304L4.72597 13.5437C4.56088 13.6846 4.4501 13.8812 4.41343 14.0983C4.37675 14.3153 4.41658 14.5386 4.52579 14.7283L5.97488 17.2988C5.97655 17.3012 5.97802 17.3038 5.97929 17.3064C6.08909 17.4935 6.25933 17.6353 6.46045 17.707C6.66157 17.7788 6.88087 17.7762 7.08027 17.6995L7.09214 17.695L8.34987 17.1757C8.42932 17.1427 8.51526 17.1296 8.60062 17.1374C8.68598 17.1452 8.76831 17.1737 8.84082 17.2205C8.9521 17.2926 9.0652 17.3606 9.1801 17.4243C9.2546 17.4658 9.31856 17.5245 9.36683 17.596C9.4151 17.6674 9.44632 17.7494 9.45798 17.8355L9.64662 19.2125L9.65069 19.2376C9.69205 19.4512 9.80399 19.6437 9.96765 19.7826C10.1313 19.9215 10.3367 19.9982 10.5491 20H13.4507C13.6658 19.9993 13.8737 19.9208 14.0379 19.7783C14.202 19.6359 14.3119 19.4386 14.3481 19.2212L14.3511 19.2017L14.5401 17.8219C14.5519 17.7359 14.5831 17.654 14.6313 17.5826C14.6795 17.5112 14.7433 17.4524 14.8177 17.4108C14.9337 17.3468 15.047 17.279 15.1569 17.2083C15.2293 17.1618 15.3114 17.1335 15.3966 17.1259C15.4817 17.1182 15.5673 17.1313 15.6465 17.1642L16.9063 17.6842L16.9182 17.689C17.1178 17.766 17.3375 17.7686 17.5389 17.6965C17.7403 17.6244 17.9106 17.4822 18.0202 17.2946C18.0215 17.292 18.023 17.2894 18.0246 17.287L19.4737 14.7169C19.5832 14.527 19.6233 14.3033 19.5867 14.086C19.5501 13.8686 19.4392 13.6716 19.2738 13.5304ZM14.7111 12.1308C14.6864 12.6694 14.5096 13.1891 14.2021 13.6266C13.8947 14.0641 13.4698 14.4006 12.9793 14.5952C12.4887 14.7898 11.9536 14.8341 11.439 14.7226C10.9243 14.6112 10.4524 14.3489 10.0804 13.9676C9.70853 13.5862 9.45271 13.1024 9.34408 12.5748C9.23545 12.0471 9.27869 11.4986 9.46855 10.9957C9.65841 10.4928 9.98671 10.0573 10.4135 9.74216C10.8403 9.42701 11.3473 9.24579 11.8727 9.22052C12.2499 9.2035 12.6264 9.26712 12.9783 9.40736C13.3302 9.54759 13.6498 9.76137 13.9168 10.0351C14.1838 10.3088 14.3923 10.6365 14.529 10.9973C14.6658 11.3581 14.7278 11.7441 14.7111 12.1308Z" fill="black"/>
</svg>
