<svg width="24" height="24" viewBox="0 0 24 24" fill="none" xmlns="http://www.w3.org/2000/svg">
<path fill-rule="evenodd" clip-rule="evenodd" d="M11.5925 2.87314C11.1154 3.02481 10.5122 3.51408 10.5122 3.74938C10.5122 3.75788 10.4697 3.85585 10.4176 3.96704C10.3657 4.07823 10.1563 4.53299 9.95233 4.97756C9.74832 5.4222 9.53054 5.89508 9.46827 6.0285C9.406 6.16185 9.2917 6.40907 9.21416 6.57781C8.94503 7.16393 8.56664 7.52104 8.07811 7.65004C7.82593 7.71666 7.712 7.73609 6.87451 7.85523C6.02931 7.97542 4.33966 8.25889 4.1549 8.31147C2.93914 8.65746 2.5875 10.3369 3.56437 11.1315C3.65563 11.2058 3.80705 11.3357 3.90092 11.4202C4.12492 11.622 4.37499 11.8378 4.54739 11.9781C5.54848 12.7927 6.438 13.6654 6.438 13.8328C6.438 13.8599 6.45005 13.8895 6.46476 13.8986C6.49028 13.9143 6.54901 14.1478 6.57905 14.3527C6.59818 14.4831 6.51567 15.0084 6.35767 15.7612C5.8777 18.0492 5.84523 18.3146 5.99852 18.6995C6.2263 19.2716 6.58228 19.5772 7.20671 19.7366C7.67358 19.8558 7.93426 19.795 8.61525 19.4082C9.4949 18.9086 10.014 18.6114 10.4152 18.3778C11.4084 17.7993 11.6368 17.7013 11.9927 17.7013C12.1743 17.7013 12.4875 17.7818 12.6228 17.8634C12.6802 17.8979 12.8144 17.9721 12.9211 18.0281C13.0279 18.0841 13.2679 18.2207 13.4547 18.3316C13.9878 18.6482 14.3831 18.8767 14.7124 19.0585C14.8795 19.1508 15.0687 19.2593 15.1328 19.2996C15.7059 19.6603 16.2065 19.8276 16.5743 19.7812C17.6413 19.6465 18.2 18.8258 18.0011 17.6852C17.8311 16.71 17.7386 16.2087 17.5983 15.5026C17.3906 14.4579 17.3808 14.331 17.4802 13.9798C17.5772 13.6377 17.7575 13.4115 18.3033 12.9476C18.418 12.85 18.5515 12.7339 18.5998 12.6894C18.6483 12.645 18.7646 12.5431 18.8582 12.4631C18.9519 12.3831 19.1677 12.1939 19.3377 12.0427C19.5077 11.8914 19.7195 11.7103 19.8084 11.6401C19.8974 11.57 19.9847 11.4973 20.0024 11.4786C20.0202 11.4598 20.1221 11.3718 20.2287 11.2829C20.564 11.0033 20.6 10.9672 20.7107 10.7997C21.3827 9.78321 20.8271 8.46879 19.6306 8.24449C19.2406 8.17142 17.9931 7.9689 17.6097 7.91644C17.4318 7.8921 17.2135 7.85839 17.1246 7.84157C17.0357 7.82468 16.832 7.79389 16.6719 7.77315C15.4218 7.61124 15.1087 7.36409 14.5846 6.12547C14.5282 5.99212 14.424 5.76701 14.3532 5.62527C14.2824 5.48354 14.1836 5.26525 14.1337 5.14022C14.034 4.88984 13.8774 4.54963 13.567 3.90843C13.1384 3.02282 12.3771 2.62369 11.5925 2.87314Z" fill="black"/>
</svg>
