<svg width="24" height="24" viewBox="0 0 24 24" fill="none" xmlns="http://www.w3.org/2000/svg">
<path d="M16.8292 11.6712C19.1325 11.6712 20.9998 13.5357 20.9998 15.8356C20.9998 18.1355 19.1325 20 16.8292 20C14.987 20 13.4239 18.8075 12.8717 17.1535H11.1283C10.5761 18.8075 9.01296 20 7.17084 20C4.86746 20 3.0002 18.1355 3.0002 15.8356C3.0002 13.5357 4.86746 11.6712 7.17084 11.6712C9.32603 11.6712 11.0994 13.3035 11.3187 15.3975H12.6813C12.9006 13.3035 14.674 11.6712 16.8292 11.6712ZM7.17084 13.4247C5.8373 13.4247 4.75626 14.5041 4.75626 15.8356C4.75626 17.1672 5.8373 18.2466 7.17084 18.2466C8.50437 18.2466 9.58542 17.1672 9.58542 15.8356C9.58542 14.5041 8.50437 13.4247 7.17084 13.4247ZM16.8292 13.4247C15.4956 13.4247 14.4146 14.5041 14.4146 15.8356C14.4146 17.1672 15.4956 18.2466 16.8292 18.2466C18.1627 18.2466 19.2437 17.1672 19.2437 15.8356C19.2437 14.5041 18.1627 13.4247 16.8292 13.4247ZM15.0836 4C16.1499 4 17.0899 4.69838 17.3963 5.71817L18.2797 8.65616C18.9756 8.77181 19.6567 8.90788 20.3229 9.0644C20.7949 9.1753 21.0875 9.64729 20.9765 10.1186C20.8654 10.5899 20.3927 10.8821 19.9207 10.7712C17.5012 10.2028 14.8612 9.91781 12 9.91781C9.1388 9.91781 6.49878 10.2028 4.07933 10.7712C3.6073 10.8821 3.1346 10.5899 3.02354 10.1186C2.91247 9.64729 3.20509 9.1753 3.67712 9.0644C4.34306 8.90795 5.02382 8.77192 5.7194 8.65631L6.60367 5.71817C6.91006 4.69838 7.85012 4 8.91641 4H15.0836Z" fill="black"/>
</svg>
