<svg width="24" height="24" viewBox="0 0 24 24" fill="none" xmlns="http://www.w3.org/2000/svg">
<path d="M17.1801 4H6.8201C5.77358 4 5.25032 4 4.92521 4.37556C4.6001 4.75112 4.6001 5.35557 4.6001 6.56446V7.19297C4.6001 8.13855 4.6001 8.61135 4.7922 9.00329C4.98431 9.39523 5.33527 9.63848 6.03719 10.125L8.19283 11.6191C8.66378 11.9454 8.89925 12.1087 9.06785 12.2889C9.41897 12.6642 9.63512 13.1052 9.73306 13.6461C9.7801 13.9058 9.7801 14.2097 9.7801 14.8175V17.2497C9.7801 18.0785 9.7801 18.4927 9.96652 18.8158C10.1529 19.1388 10.484 19.2982 11.1463 19.617C12.5364 20.2861 13.2315 20.6206 13.7259 20.24C14.2201 19.8593 14.2201 18.9895 14.2201 17.2497V14.8175C14.2201 14.2097 14.2201 13.9058 14.2672 13.6461C14.3651 13.1052 14.5812 12.6642 14.9323 12.2889C15.1009 12.1087 15.3364 11.9454 15.8074 11.6191L17.963 10.125C18.6649 9.63848 19.0159 9.39523 19.208 9.00329C19.4001 8.61135 19.4001 8.13855 19.4001 7.19297V6.56446C19.4001 5.35557 19.4001 4.75112 19.075 4.37556C18.7499 4 18.2266 4 17.1801 4Z" fill="black"/>
</svg>
