<svg width="24" height="24" viewBox="0 0 24 24" fill="none" xmlns="http://www.w3.org/2000/svg">
<path d="M15.4619 4.875C17.9475 4.87524 19.9648 6.93828 19.9648 9.46875C19.9648 12.3837 18.1467 14.9443 16.0977 16.8818C14.2333 18.6446 12.3952 19.6946 12.3096 19.7432C12.2136 19.7975 12.1066 19.8252 12 19.8252C11.8936 19.8252 11.7873 19.7975 11.6914 19.7432C11.6103 19.6972 9.76916 18.647 7.90234 16.8818C5.85324 14.9443 4.03523 12.3836 4.03516 9.46875C4.03516 6.93813 6.05326 4.875 8.53906 4.875C9.92084 4.87508 11.1692 5.51438 12 6.5332C12.831 5.51409 14.0801 4.875 15.4619 4.875ZM15.4619 6.16602C14.2306 6.16602 13.1213 6.86476 12.5684 7.99316C12.4614 8.21146 12.2419 8.35156 12 8.35156C11.7582 8.35149 11.5386 8.21144 11.4316 7.99316C10.8786 6.8649 9.77017 6.1661 8.53906 6.16602C6.75862 6.16602 5.30566 7.64549 5.30566 9.46875C5.30573 11.7361 6.6698 13.7894 8.21094 15.3828C9.69655 16.9187 11.3289 18.008 11.999 18.4268C12.5882 18.0595 13.9276 17.1733 15.248 15.9219C16.8344 14.4184 18.6952 12.0914 18.6953 9.46875C18.6953 7.64562 17.2422 6.16624 15.4619 6.16602Z" fill="black" stroke="black" stroke-width="0.25"/>
</svg>
