<svg width="24" height="24" viewBox="0 0 24 24" fill="none" xmlns="http://www.w3.org/2000/svg">
<path d="M18.3883 8.33213H17.4694C18.436 7.16357 18.3581 5.45314 17.2347 4.3726C16.6495 3.80985 15.8715 3.5 15.0439 3.5C14.2165 3.5 13.4384 3.80985 12.8533 4.3726C12.5691 4.64594 12.2813 5.03046 12.026 5.46438C11.7706 5.03068 11.483 4.64639 11.1988 4.37313C10.6136 3.81045 9.83569 3.50098 9.00816 3.50098C8.18063 3.50098 7.40267 3.81196 6.81749 4.37463C5.69529 5.4539 5.61639 7.16341 6.57945 8.33213H5.66392C4.75937 8.33213 4 9.03736 4 9.90724V9.92489C4 10.7948 4.75937 11.5 5.66392 11.5H18.3883C19.2929 11.5 20 10.7948 20 9.92489V9.90724C20 9.03736 19.2929 8.33213 18.3883 8.33213ZM13.3603 7.15421C13.6225 6.48813 14 5.93647 14.2398 5.70597C14.4545 5.49945 14.7402 5.38564 15.0439 5.38564C15.3478 5.38564 15.6334 5.49945 15.8482 5.70597C16.2915 6.13235 16.2915 6.82634 15.8482 7.25272C15.3571 7.72488 14.0624 8.32391 13.3074 8.32391C13.2247 8.32391 13.171 8.31614 13.1394 8.30928C13.1045 8.16801 13.118 7.76976 13.3603 7.15421ZM8.20408 7.25687C7.76071 6.83049 7.76071 6.13242 8.20408 5.70597C8.4189 5.49945 8.70447 5.38564 9.00824 5.38564C9.312 5.38564 9.59765 5.50043 9.81239 5.70702C10.0522 5.9376 10.4296 6.49024 10.6918 7.15632C10.9343 7.77187 10.9478 8.17215 10.9128 8.31343C10.8813 8.32036 10.8275 8.33221 10.7449 8.33221C9.98996 8.33213 8.69506 7.72895 8.20408 7.25687Z" fill="black"/>
<path d="M5 19.4895C5 20.0467 5.45468 20.5 5.98103 20.5H18.0719C18.5983 20.5 19 20.0467 19 19.4895V12.5H5V19.4895Z" fill="black"/>
</svg>
