<svg width="256" height="256" viewBox="0 0 256 256" fill="none" xmlns="http://www.w3.org/2000/svg">
<rect width="256" height="256" fill="#94CEF6"/>
<path fill-rule="evenodd" clip-rule="evenodd" d="M145.221 42.4097C140.752 43.6164 138.872 46.5533 136.393 56.2049C136.182 57.0268 135.603 59.2459 135.107 61.1367C133.335 67.8851 132.725 70.3154 131.655 74.8868C130.539 79.6525 129.785 82.8251 128.777 86.9924C128.459 88.3078 127.584 91.9395 126.833 95.0631C124.28 105.69 123.432 107.468 120.916 107.468C117.195 107.468 114.397 99.1914 105.453 61.7343C102.493 49.3356 100.198 46.1914 94.109 46.1914C87.0201 46.1914 83.9914 52.095 85.6756 62.6312C86.3896 67.0985 86.9413 70.6085 87.366 73.3923C87.8695 76.6881 88.8459 82.597 89.4894 86.2448C89.7366 87.6428 90.0672 89.5252 90.2256 90.4297C90.3832 91.3342 90.7061 93.15 90.9426 94.4654C91.179 95.7801 91.4598 97.462 91.5662 98.2012C91.6726 98.9411 92.0116 101.228 92.3199 103.283C93.8052 113.185 94.4671 129.231 93.4785 131.381C93.2137 131.956 91.9909 133.616 90.7612 135.069C85.531 141.246 83.6953 146.608 84.0404 154.696C84.4444 164.167 87.3989 171.149 97.1806 185.75C101.296 191.894 102.608 198.93 101.26 207.62C100.701 211.229 101.585 212.572 104.826 213.032C117.724 214.863 146.083 215.333 155.386 213.869C160.662 213.039 162.359 212.588 163.272 211.772L164.184 210.958L164.386 206.341C164.715 198.857 164.965 198.047 167.918 194.912C173.604 188.877 176.651 183.726 178.89 176.367C180.611 170.707 181.546 164.53 182.892 149.913C183.218 146.378 183.621 142.343 183.789 140.946C185.119 129.882 180.59 122.862 172.125 122.862C170.563 122.862 169.028 122.985 168.715 123.136C168.172 123.397 168.154 123.306 168.341 121.293C169.502 108.796 156.212 100.31 147.728 108.131C146.015 109.709 146.042 109.853 147.051 104.479C148.77 95.3317 149.746 90.2476 150.153 88.3376C150.38 87.2686 150.978 84.2422 151.481 81.6122C151.985 78.9814 152.6 75.8203 152.848 74.5876C153.096 73.3548 153.902 69.2518 154.638 65.4709C155.374 61.6899 156.18 57.6167 156.429 56.4199C158.425 46.8089 153.186 40.2602 145.221 42.4097Z" fill="#FFCE55"/>
</svg>
