<svg width="108" height="108" viewBox="0 0 108 108" fill="none" xmlns="http://www.w3.org/2000/svg">
<path fill-rule="evenodd" clip-rule="evenodd" d="M61.0356 23.1475C59.4271 23.5818 58.7504 24.6389 57.858 28.1128C57.782 28.4086 57.5738 29.2074 57.395 29.8879C56.7574 32.3169 56.5379 33.1917 56.1526 34.8371C55.751 36.5524 55.4794 37.6943 55.1167 39.1943C55.0021 39.6677 54.6873 40.9749 54.4171 42.0992C53.498 45.924 53.1929 46.5641 52.2873 46.5641C50.9481 46.5641 49.9409 43.5851 46.7217 30.103C45.6561 25.6403 44.8301 24.5086 42.6386 24.5086C40.087 24.5086 38.9969 26.6335 39.6031 30.4258C39.8601 32.0338 40.0587 33.2972 40.2115 34.2991C40.3928 35.4854 40.7442 37.6122 40.9758 38.9252C41.0648 39.4284 41.1838 40.1059 41.2408 40.4315C41.2975 40.757 41.4138 41.4106 41.4989 41.8841C41.584 42.3573 41.6851 42.9626 41.7233 43.2287C41.7616 43.495 41.8836 44.318 41.9946 45.0578C42.5292 48.6218 42.7675 54.3975 42.4116 55.1711C42.3163 55.3782 41.8762 55.9756 41.4336 56.4987C39.5511 58.7219 38.8903 60.6521 39.0145 63.563C39.16 66.972 40.2234 69.4852 43.7441 74.7406C45.2254 76.9517 45.6977 79.4843 45.2124 82.6123C45.0111 83.9112 45.3295 84.3945 46.4959 84.5601C51.1385 85.2192 61.3457 85.3883 64.6943 84.8614C66.5934 84.5628 67.204 84.4003 67.5326 84.1067L67.8609 83.8137L67.9336 82.152C68.052 79.4581 68.1421 79.1667 69.205 78.0383C71.2516 75.866 72.3484 74.0118 73.154 71.3631C73.7737 69.326 74.11 67.1028 74.5945 61.8416C74.7118 60.5692 74.857 59.1169 74.9175 58.6139C75.396 54.6318 73.766 52.1048 70.7192 52.1048C70.1568 52.1048 69.6046 52.1492 69.4917 52.2037C69.2964 52.2973 69.2898 52.2648 69.357 51.5402C69.7751 47.0422 64.9915 43.9878 61.9379 46.8026C61.3212 47.3708 61.3308 47.4226 61.6941 45.4883C62.3127 42.1959 62.6642 40.3659 62.8107 39.6785C62.8925 39.2937 63.1076 38.2044 63.2888 37.2578C63.4701 36.3108 63.6915 35.1731 63.7807 34.7294C63.87 34.2857 64.16 32.8088 64.425 31.4479C64.6899 30.0871 64.9799 28.621 65.0695 28.1902C65.788 24.7309 63.9025 22.3738 61.0356 23.1475Z" fill="#FFCE55"/>
</svg>
