<svg width="512" height="512" viewBox="0 0 512 512" fill="none" xmlns="http://www.w3.org/2000/svg">
<g clip-path="url(#clip0_17140_2)">
<path d="M201.795 36.9706C189.617 12.3565 156.533 12.3564 149.761 44.1051C146.667 58.6141 156.678 106.189 162.948 150.409C170.398 202.951 177.355 218.544 167.225 264.561C166.675 267.058 158.315 274.906 153.682 280.614C149.048 286.322 138.356 301.689 138.356 324.491C138.356 347.2 144.756 363.656 152.518 379.589L152.612 379.784C160.183 395.324 168.294 403.684 169.363 415.099C170.432 426.515 166.647 438.942 164.976 445.994C163.759 451.126 160.499 460.403 161.879 463.257C172.571 485.374 246.345 503.21 276.995 500C307.645 496.79 291.513 498.53 295.884 497.86C316.343 494.72 330.188 491.738 331.167 481.45C332.355 468.965 337.226 448.988 341.146 439C342.456 435.663 345.396 432.844 349.807 428.615C358.601 420.183 377.635 408.227 392.467 371.222C440.225 252.076 371.44 255.643 371.44 255.643C371.44 255.643 380.646 229.602 358.61 213.193C352.338 208.523 337.226 197.854 315.486 211.766C328.733 155.744 332.44 141 350.343 71.0679C351.537 66.4059 352.793 61.4982 354.12 56.3171L354.121 56.3137L354.689 54.0935C363.746 18.725 336.613 13.0864 331.524 12.7133C307.33 10.9396 302.299 27.6959 301.23 29.4794C296.953 36.6136 288.851 59.2199 280.202 92.263C267.728 132.216 254.619 197.695 245.275 195.357C236.8 193.236 229.941 157.562 222.64 119.592C216.433 87.3077 209.906 53.3632 201.795 36.9706Z" fill="#61B4EE"/>
</g>
<defs>
<clipPath id="clip0_17140_2">
<rect width="273" height="488" fill="white" transform="translate(138 12)"/>
</clipPath>
</defs>
</svg>
