<svg width="99" height="19" viewBox="0 0 99 19" fill="none" xmlns="http://www.w3.org/2000/svg">
<path fill-rule="evenodd" clip-rule="evenodd" d="M27.3128 0.959473C27.2838 0.988309 27.26 1.6974 27.26 2.53522V4.05842H29.0404H30.8208V2.48267V0.906921H29.0932C28.1429 0.906921 27.3418 0.930558 27.3128 0.959473ZM83.5721 0.959473C83.5431 0.988309 83.5193 1.6974 83.5193 2.53522V4.05842H85.2997H87.0801V2.48267V0.906921H85.3525C84.4022 0.906921 83.6011 0.930558 83.5721 0.959473ZM21.0895 7.4644C21.091 14.0355 21.0971 14.1444 21.5151 15.0534C21.7626 15.5919 22.3607 16.2312 22.8456 16.4759C23.6444 16.8789 25.1193 17.0216 26.2816 16.8084L26.7853 16.7159V15.4239V14.1319L26.3506 14.186C25.4726 14.2952 24.9096 14.0711 24.5867 13.4838C24.4631 13.259 24.4476 12.7145 24.4115 7.3281L24.3719 1.41904L22.73 1.39777L21.0881 1.37642L21.0895 7.4644ZM48.7048 7.4644C48.7063 14.0355 48.7124 14.1444 49.1304 15.0534C49.3779 15.5919 49.976 16.2312 50.461 16.4759C51.2597 16.8789 52.7346 17.0216 53.897 16.8084L54.4006 16.7159V15.4239V14.1319L53.9659 14.186C53.0879 14.2952 52.5249 14.0711 52.202 13.4838C52.0784 13.259 52.0629 12.7145 52.0268 7.3281L51.9872 1.41904L50.3453 1.39777L48.7035 1.37642L48.7048 7.4644ZM33.2737 4.48939V6.02338L32.2648 6.04544L31.256 6.0675V7.28871V8.50991L32.2648 8.53197L33.2737 8.55403V10.869C33.2737 13.4821 33.3465 14.0875 33.7623 14.9305C34.2333 15.8854 35.1391 16.5339 36.3596 16.7902C37.5458 17.0391 39.8989 16.7807 40.0516 16.3847C40.0755 16.3225 39.9976 15.7543 39.8783 15.1221C39.6732 14.0346 39.6525 13.9753 39.4943 14.0194C38.2431 14.3674 37.3686 14.2215 36.8958 13.5856C36.6415 13.2436 36.6009 12.843 36.5989 10.6569L36.597 8.54931H39.1291H41.6612V10.8666C41.6612 13.4823 41.7339 14.0874 42.1498 14.9305C42.6208 15.8854 43.5266 16.5339 44.7471 16.7902C45.9333 17.0391 48.2864 16.7807 48.439 16.3847C48.463 16.3225 48.3851 15.7543 48.2658 15.1221C48.0606 14.0346 48.04 13.9753 47.8817 14.0194C46.6306 14.3674 45.7561 14.2215 45.2833 13.5856C45.029 13.2436 44.9884 12.8431 44.9864 10.6585L44.9845 8.55262L46.5473 8.53126L48.11 8.50991L48.1318 7.26901L48.1536 6.02811H46.569H44.9845V4.49175V2.9554H43.3228H41.6612V4.49175V6.02811H39.1291H36.597V4.49175V2.9554H34.9354H33.2737V4.48939ZM59.0324 5.87423C57.5308 6.10855 56.2034 6.93653 55.3999 8.14008C54.7735 9.07829 54.4797 10.1144 54.4797 11.3857C54.4797 12.3476 54.6617 13.1789 55.0491 13.9856C55.3094 14.5279 55.4927 14.7752 56.0131 15.2856C57.1106 16.3621 58.2762 16.8081 60.1769 16.879C60.9807 16.9089 61.4189 16.8862 61.9471 16.7872C63.0175 16.5867 64.0941 16.1629 64.7233 15.6944C64.8745 15.5818 64.868 15.5534 64.4532 14.5066C64.2195 13.9167 63.999 13.4341 63.9633 13.4341C63.9275 13.4341 63.7286 13.5379 63.5212 13.6647C62.983 13.9939 62.055 14.2835 61.2449 14.3752C59.3997 14.584 58.0712 13.9077 57.7709 12.6069C57.741 12.4769 57.6979 12.3085 57.6753 12.2326C57.6365 12.1027 57.8486 12.0947 61.3585 12.0947H65.0828L65.0814 11.6417C65.0789 10.8144 64.9302 9.75728 64.7257 9.11271C64.4873 8.36124 63.8988 7.44045 63.358 6.97285C62.9066 6.58253 61.8754 6.0742 61.2926 5.95476C60.6747 5.82807 59.5784 5.78899 59.0324 5.87423ZM93.5168 5.87802C92.6103 6.02882 91.7875 6.46049 91.2029 7.09197L90.8782 7.44274V6.73546V6.02811H89.2561H87.634V11.3463V16.6644H89.2956H90.9573L90.9578 13.4538C90.958 11.5118 90.9901 10.1288 91.039 9.95354C91.1834 9.43598 91.5928 8.92378 92.0651 8.66985C92.4424 8.46697 92.5844 8.43554 93.1333 8.43349C93.8473 8.43081 94.1299 8.54883 94.4185 8.97042C94.7211 9.41242 94.7514 9.80408 94.7535 13.2963L94.7554 16.6644H96.4217H98.0881L98.0582 12.7447C98.026 8.52409 98.0275 8.53977 97.5833 7.59117C97.2826 6.94905 96.8804 6.54243 96.2347 6.2276C95.433 5.83673 94.4923 5.71571 93.5168 5.87802ZM27.4183 11.3463V16.6644H29.08H30.7416V11.3463V6.02811H29.08H27.4183V11.3463ZM64.2124 6.08255C64.2124 6.11422 65.1817 8.50889 66.3663 11.404L68.5203 16.6678L69.9445 16.6465L71.3688 16.625L72.4553 13.7493C73.0528 12.1676 73.5535 10.8435 73.5679 10.8069C73.5823 10.7702 74.1103 12.0643 74.7414 13.6826L75.8888 16.625L77.3113 16.6465L78.7338 16.6678L80.8694 11.4198C82.044 8.53347 83.0169 6.13951 83.0314 6.10004C83.0467 6.05812 82.3858 6.02866 81.4488 6.02945L79.8399 6.03079L78.6207 9.35822C77.9501 11.1883 77.3834 12.7183 77.3614 12.7581C77.3171 12.8386 77.2517 12.6707 75.8062 8.76597L74.7926 6.02811H73.7032H72.6137L72.3821 6.63871C72.2548 6.9745 71.692 8.4795 71.1314 9.983C70.5708 11.4866 70.0943 12.699 70.0724 12.6771C70.0505 12.6554 69.4794 11.1593 68.8031 9.35254L67.5735 6.0675L65.8929 6.04623C64.9687 6.03457 64.2124 6.05088 64.2124 6.08255ZM83.6776 11.3463V16.6644H85.3393H87.0009V11.3463V6.02811H85.3393H83.6776V11.3463ZM59.6609 8.08351C59.1722 8.14528 58.7147 8.37274 58.381 8.71964C58.1147 8.99658 57.7747 9.67376 57.6853 10.1054L57.6322 10.3614H59.9442H62.2563L62.2125 9.93888C62.1409 9.24791 61.7726 8.64566 61.2012 8.28497C60.9405 8.12039 60.1683 8.01946 59.6609 8.08351Z" fill="#343A41"/>
<path fill-rule="evenodd" clip-rule="evenodd" d="M6.40046 0.0428335C5.93326 0.168993 5.7367 0.476033 5.4775 1.48507C5.45542 1.57099 5.39494 1.80299 5.34302 2.00067C5.15782 2.70619 5.09406 2.96027 4.98214 3.43819C4.8655 3.93643 4.78662 4.26811 4.68126 4.70379C4.64798 4.84131 4.55654 5.22099 4.47806 5.54755C4.2111 6.65851 4.12246 6.84443 3.85942 6.84443C3.47046 6.84443 3.1779 5.97915 2.24286 2.06315C1.93334 0.766914 1.69342 0.438194 1.05686 0.438194C0.31574 0.438194 -0.000899239 1.05539 0.175181 2.15691C0.249821 2.62395 0.307501 2.99091 0.351901 3.28195C0.404541 3.62651 0.506621 4.24427 0.573901 4.62563C0.599741 4.77179 0.634301 4.96859 0.650861 5.06315C0.667341 5.15771 0.7011 5.34755 0.72582 5.48507C0.75054 5.62251 0.779901 5.79835 0.791021 5.87563C0.802141 5.95299 0.837581 6.19203 0.869821 6.40691C1.0251 7.44211 1.0943 9.11971 0.990941 9.34443C0.963261 9.40459 0.83542 9.57811 0.70686 9.73003C0.16006 10.3758 -0.0318587 10.9364 0.00422128 11.782C0.0464613 12.7721 0.355341 13.5021 1.37798 15.0286C1.80822 15.6708 1.94542 16.4064 1.80446 17.315C1.74598 17.6923 1.83846 17.8327 2.17726 17.8808C3.52574 18.0722 6.49054 18.1213 7.46318 17.9683C8.01478 17.8816 8.19214 17.8344 8.28758 17.7491L8.38294 17.664L8.40406 17.1813C8.43846 16.3988 8.46462 16.3142 8.77334 15.9864C9.36782 15.3555 9.68638 14.8169 9.92038 14.0476C10.1004 13.4559 10.1981 12.8101 10.3388 11.282C10.3729 10.9124 10.415 10.4905 10.4326 10.3444C10.5716 9.18779 10.0981 8.45379 9.21318 8.45379C9.04982 8.45379 8.88942 8.46667 8.85662 8.48251C8.7999 8.50972 8.79798 8.50027 8.8175 8.28979C8.93894 6.98331 7.5495 6.09611 6.66254 6.91371C6.48342 7.07875 6.48622 7.09379 6.59174 6.53195C6.77142 5.57563 6.8735 5.04411 6.91606 4.84443C6.93982 4.73267 7.0023 4.41627 7.05494 4.14131C7.10758 3.86627 7.1719 3.53579 7.19782 3.40691C7.22374 3.27803 7.30798 2.84907 7.38494 2.45379C7.4619 2.05851 7.54614 1.63267 7.57214 1.50755C7.78086 0.502754 7.23318 -0.181887 6.40046 0.0428335Z" fill="#343A41"/>
</svg>
