<svg width="1024" height="1024" viewBox="0 0 1024 1024" fill="none" xmlns="http://www.w3.org/2000/svg">
<path fill-rule="evenodd" clip-rule="evenodd" d="M578.708 219.472C563.457 223.591 557.041 233.613 548.58 266.551C547.859 269.356 545.885 276.929 544.19 283.382C538.144 306.412 536.063 314.706 532.41 330.307C528.602 346.571 526.027 357.398 522.588 371.62C521.502 376.109 518.517 388.503 515.955 399.163C507.241 435.428 504.347 441.497 495.761 441.497C483.064 441.497 473.514 413.251 442.991 285.422C432.888 243.108 425.056 232.378 404.277 232.378C380.085 232.378 369.748 252.525 375.496 288.482C377.933 303.728 379.816 315.706 381.265 325.207C382.983 336.454 386.315 356.62 388.512 369.068C389.355 373.839 390.483 380.264 391.024 383.35C391.562 386.437 392.664 392.634 393.471 397.123C394.278 401.61 395.236 407.349 395.599 409.872C395.962 412.397 397.119 420.2 398.171 427.215C403.24 461.007 405.499 515.768 402.125 523.104C401.222 525.068 397.048 530.732 392.852 535.691C375.003 556.771 368.738 575.072 369.916 602.672C371.294 634.994 381.377 658.823 414.759 708.652C428.804 729.616 433.282 753.629 428.681 783.287C426.772 795.602 429.791 800.185 440.85 801.755C484.868 808.004 581.648 809.607 613.398 804.612C631.404 801.781 637.193 800.24 640.309 797.456L643.422 794.678L644.111 778.923C645.234 753.38 646.088 750.617 656.166 739.918C675.571 719.322 685.97 701.742 693.608 676.628C699.484 657.313 702.673 636.234 707.266 586.35C708.379 574.286 709.755 560.515 710.329 555.747C714.865 517.991 699.411 494.031 670.523 494.031C665.191 494.031 659.955 494.451 658.884 494.968C657.033 495.856 656.97 495.548 657.607 488.677C661.571 446.03 616.216 417.069 587.263 443.758C581.416 449.145 581.507 449.636 584.952 431.296C590.817 400.079 594.149 382.729 595.538 376.211C596.314 372.563 598.354 362.234 600.072 353.259C601.79 344.281 603.89 333.493 604.736 329.286C605.582 325.079 608.332 311.076 610.844 298.173C613.356 285.27 616.106 271.369 616.955 267.285C623.768 234.485 605.89 212.137 578.708 219.472Z" fill="#FFCE55"/>
</svg>
