<svg width="24" height="24" viewBox="0 0 24 24" fill="none" xmlns="http://www.w3.org/2000/svg">
<path d="M12.6836 12.6798L7.24525 18.1181C6.86937 18.4939 6.26156 18.4939 5.88968 18.1181L4.98596 17.2143C4.61008 16.8385 4.61008 16.2307 4.98596 15.8588L8.83676 12L4.98196 8.14518C4.60608 7.7693 4.60608 7.16149 4.98196 6.7896L5.88568 5.88189C6.26156 5.506 6.86937 5.506 7.24125 5.88189L12.6796 11.3202C13.0594 11.6961 13.0594 12.3039 12.6836 12.6798ZM20.3612 11.3202L14.9229 5.88189C14.547 5.506 13.9392 5.506 13.5673 5.88189L12.6636 6.78561C12.2877 7.16149 12.2877 7.7693 12.6636 8.14118L16.5184 11.996L12.6636 15.8508C12.2877 16.2267 12.2877 16.8345 12.6636 17.2063L13.5673 18.1101C13.9432 18.4859 14.551 18.4859 14.9229 18.1101L20.3612 12.6718C20.737 12.3039 20.737 11.6961 20.3612 11.3202Z" fill="black"/>
</svg>
