<svg width="24" height="24" viewBox="0 0 24 24" fill="none" xmlns="http://www.w3.org/2000/svg">
<path d="M10.6007 13.3962L18.7731 5.22684M10.833 13.7636L12.6861 17.4699C13.134 18.3655 13.3578 18.8133 13.6399 18.9334C13.8847 19.0376 14.1646 19.0187 14.3932 18.8826C14.6566 18.7258 14.8184 18.2519 15.142 17.3043L18.6433 7.05035C18.9253 6.22465 19.0662 5.8118 18.9697 5.53869C18.8858 5.3011 18.6989 5.11421 18.4614 5.03027C18.1882 4.93378 17.7754 5.07475 16.9496 5.35669L6.6957 8.85804C5.74807 9.18163 5.27425 9.34342 5.1174 9.60683C4.98128 9.83543 4.96242 10.1153 5.06663 10.36C5.18672 10.6421 5.63454 10.8661 6.53018 11.3138L10.2364 13.167C10.384 13.2408 10.4578 13.2776 10.5217 13.3269C10.5785 13.3707 10.6293 13.4216 10.673 13.4783C10.7224 13.5422 10.7592 13.616 10.833 13.7636Z" stroke="black" stroke-width="1.5" stroke-linecap="round" stroke-linejoin="round"/>
</svg>
