<svg width="24" height="24" viewBox="0 0 24 24" fill="none" xmlns="http://www.w3.org/2000/svg">
<path d="M18.7057 15.0468C18.6452 14.9754 18.5858 14.9039 18.5276 14.835C17.7261 13.8846 17.2413 13.3111 17.2413 10.6207C17.2413 9.22786 16.9014 8.085 16.2315 7.22786C15.7376 6.59464 15.0698 6.11429 14.1898 5.75929C14.1784 5.75311 14.1683 5.74501 14.1599 5.73536C13.8433 4.69607 12.9771 4 12.0001 4C11.0231 4 10.1572 4.69607 9.84066 5.73429C9.83221 5.74358 9.82224 5.75143 9.81116 5.7575C7.75737 6.58643 6.75925 8.17679 6.75925 10.6196C6.75925 13.3111 6.27513 13.8846 5.47299 14.8339C5.41471 14.9029 5.35533 14.9729 5.29486 15.0457C5.13866 15.2304 5.03969 15.4551 5.00967 15.6932C4.97965 15.9313 5.01984 16.1729 5.12547 16.3893C5.35023 16.8536 5.82925 17.1418 6.37603 17.1418H17.6282C18.1724 17.1418 18.6481 16.8539 18.8736 16.3918C18.9797 16.1753 19.0203 15.9336 18.9905 15.6952C18.9607 15.4568 18.8619 15.2318 18.7057 15.0468Z" fill="black"/>
<path d="M12.0001 20C12.5265 19.9996 13.0429 19.8595 13.4947 19.5946C13.9465 19.3297 14.3167 18.9498 14.5661 18.4954C14.5778 18.4736 14.5836 18.4492 14.5829 18.4246C14.5822 18.3999 14.575 18.3759 14.562 18.3548C14.549 18.3337 14.5307 18.3162 14.5088 18.3041C14.4869 18.292 14.4622 18.2857 14.4371 18.2857H9.56381C9.53865 18.2856 9.51389 18.2919 9.49195 18.304C9.47002 18.3161 9.45164 18.3335 9.43862 18.3546C9.4256 18.3758 9.41837 18.3998 9.41765 18.4245C9.41693 18.4491 9.42273 18.4735 9.43449 18.4954C9.68385 18.9498 10.054 19.3296 10.5057 19.5945C10.9574 19.8594 11.4738 19.9995 12.0001 20Z" fill="black"/>
</svg>
