<svg width="24" height="24" viewBox="0 0 24 24" fill="none" xmlns="http://www.w3.org/2000/svg">
<path d="M15.5146 4.875C18.0593 4.87518 20.125 6.98654 20.125 9.57617L20.1201 9.85254C20.0101 12.7026 18.2166 15.2092 16.1865 17.1279C14.2878 18.9225 12.4145 19.9905 12.332 20.0371C12.2289 20.0955 12.1145 20.125 12 20.125C11.8855 20.125 11.7711 20.0955 11.668 20.0371C11.5855 19.9905 9.71224 18.9225 7.81348 17.1279C5.71904 15.1484 3.87518 12.5413 3.875 9.57617C3.875 6.98654 5.9407 4.87518 8.48535 4.875C9.87816 4.875 11.1459 5.5099 12 6.53613C12.8557 5.50774 14.1246 4.875 15.5146 4.875Z" fill="black" stroke="black" stroke-width="0.25"/>
</svg>
