<svg width="24" height="24" viewBox="0 0 24 24" fill="none" xmlns="http://www.w3.org/2000/svg">
<path d="M4.2002 17.7899V8.58984C4.2002 8.29223 4.26676 8.0103 4.39988 7.74406C4.53317 7.47765 4.71725 7.25829 4.95212 7.086L10.8723 2.62596C11.2008 2.37532 11.5762 2.25 11.9986 2.25C12.421 2.25 12.7975 2.37532 13.1281 2.62596L19.0483 7.086C19.2831 7.25829 19.4672 7.47765 19.6005 7.74406C19.7336 8.0103 19.8002 8.29223 19.8002 8.58984V17.7899C19.8002 18.2153 19.6465 18.5816 19.3392 18.889C19.0319 19.1963 18.6656 19.3499 18.2402 19.3499H14.9203C14.6538 19.3499 14.4306 19.2598 14.2505 19.0795C14.0702 18.8994 13.9801 18.6762 13.9801 18.4098V13.3299C13.9801 13.0637 13.89 12.8404 13.71 12.6601C13.5299 12.48 13.3066 12.39 13.0402 12.39H10.9602C10.6938 12.39 10.4705 12.48 10.2904 12.6601C10.1103 12.8404 10.0203 13.0637 10.0203 13.3299V18.4098C10.0203 18.6762 9.93016 18.8994 9.7499 19.0795C9.5698 19.2598 9.34655 19.3499 9.08014 19.3499H5.7602C5.33484 19.3499 4.9685 19.1963 4.66118 18.889C4.35386 18.5816 4.2002 18.2153 4.2002 17.7899Z" fill="black"/>
</svg>
