<svg width="24" height="24" viewBox="0 0 24 24" fill="none" xmlns="http://www.w3.org/2000/svg">
<path fill-rule="evenodd" clip-rule="evenodd" d="M12.0001 20.4C8.0403 20.4 6.0604 20.4 4.83025 19.1698C3.6001 17.9397 3.6001 15.9598 3.6001 12C3.6001 8.0402 3.6001 6.06031 4.83025 4.83016C6.0604 3.60001 8.0403 3.60001 12.0001 3.60001C15.9599 3.60001 17.9398 3.60001 19.1699 4.83016C20.4001 6.06031 20.4001 8.0402 20.4001 12C20.4001 15.9598 20.4001 17.9397 19.1699 19.1698C17.9398 20.4 15.9599 20.4 12.0001 20.4ZM14.0785 8.99197C14.3481 9.212 14.3881 9.60887 14.1681 9.8784L9.36813 15.7584C9.24848 15.905 9.0693 15.99 8.88009 15.99C8.69089 15.99 8.51171 15.905 8.39206 15.7584L6.47206 13.4064C6.25204 13.1369 6.29216 12.74 6.5617 12.52C6.83123 12.3 7.22811 12.34 7.44814 12.6096L8.88009 14.3638L13.1921 9.08161C13.4121 8.81207 13.809 8.77194 14.0785 8.99197ZM17.4385 8.99197C17.7081 9.212 17.7481 9.60888 17.5281 9.87841L12.728 15.7584C12.6009 15.9141 12.4072 15.9998 12.2065 15.9891C12.0058 15.9784 11.8223 15.8727 11.7124 15.7043L11.4725 15.3368C11.2823 15.0455 11.3644 14.6551 11.6558 14.4649C11.827 14.3532 12.0324 14.3355 12.2113 14.3989L16.5521 9.0816C16.7721 8.81207 17.169 8.77194 17.4385 8.99197Z" fill="black"/>
</svg>
