<svg width="24" height="24" viewBox="0 0 24 24" fill="none" xmlns="http://www.w3.org/2000/svg">
<path fill-rule="evenodd" clip-rule="evenodd" d="M12.2998 8.4C15.7791 8.4 18.5995 11.2205 18.5996 14.6998C18.5996 18.1792 15.7792 20.9996 12.2998 20.9996C8.8205 20.9995 6 18.1791 6 14.6998C6.00011 11.2206 8.82057 8.4001 12.2998 8.4ZM12.2998 10.1998C9.81469 10.1999 7.79991 12.2147 7.7998 14.6998C7.7998 17.185 9.81463 19.1997 12.2998 19.1998C14.7851 19.1998 16.7998 17.1851 16.7998 14.6998C16.7997 12.2146 14.785 10.1998 12.2998 10.1998Z" fill="black"/>
<path d="M15.9 14.7C15.9 16.6882 14.2883 18.3 12.3 18.3C10.3118 18.3 8.70004 16.6882 8.70004 14.7C8.70004 12.7118 10.3118 11.1 12.3 11.1C14.2883 11.1 15.9 12.7118 15.9 14.7Z" fill="black"/>
<path d="M16.7162 8.4L17.0571 7.16858C17.6226 5.1259 17.9054 4.10456 17.5281 3.54536C17.3958 3.34945 17.2184 3.19214 17.0126 3.08839C16.4252 2.79221 15.5183 3.26014 13.7046 4.1961C13.101 4.50752 12.7993 4.66323 12.4787 4.6971C12.3598 4.70966 12.2401 4.70966 12.1212 4.6971C11.8006 4.66323 11.4989 4.50752 10.8953 4.1961C9.08156 3.26014 8.17463 2.79221 7.58729 3.08839C7.38146 3.19214 7.20407 3.34945 7.07186 3.54536C6.69449 4.10456 6.97727 5.1259 7.54274 7.16858L7.88366 8.4C9.13124 7.52501 10.6549 7.01082 12.3 7.01082C13.945 7.01082 15.4687 7.52501 16.7162 8.4Z" fill="black"/>
</svg>
