<svg width="24" height="24" viewBox="0 0 24 24" fill="none" xmlns="http://www.w3.org/2000/svg">
<path d="M8.75011 12C9.58536 12 10.393 11.6088 11.0251 10.8989C11.6398 10.2064 12.0151 9.28295 12.0813 8.29943C12.152 7.25028 11.8469 6.28551 11.2225 5.58239C10.5981 4.87926 9.72511 4.5 8.75011 4.5C7.78203 4.5 6.90656 4.88608 6.28419 5.5875C5.65572 6.29574 5.34982 7.2588 5.42051 8.299C5.48835 9.2838 5.86332 10.2068 6.47675 10.8984C7.10725 11.6088 7.91446 12 8.75011 12Z" fill="black"/>
<path d="M3.39455 19.5H14.1053C14.2775 19.501 14.4476 19.4605 14.6025 19.3816C14.7575 19.3028 14.8931 19.1877 14.999 19.0453C15.1113 18.8909 15.1889 18.7118 15.2259 18.5215C15.2629 18.3312 15.2584 18.1345 15.2127 17.9463C14.8706 16.5055 14.0232 15.3106 12.7622 14.4912C11.643 13.7642 10.2183 13.3636 8.75011 13.3636C7.25309 13.3636 5.86575 13.7471 4.74004 14.4737C3.4762 15.2889 2.62755 16.4906 2.28712 17.9488C2.24197 18.1372 2.23795 18.3338 2.27538 18.5241C2.3128 18.7143 2.39069 18.8932 2.50324 19.0474C2.60903 19.1892 2.74435 19.3037 2.89885 19.3822C3.05334 19.4606 3.22291 19.5009 3.39455 19.5Z" fill="black"/>
<path d="M16.4282 12.1704C17.8578 12.1704 19.1147 10.7761 19.2313 9.06264C19.289 8.1848 19.0282 7.37301 18.5001 6.7777C17.9776 6.18835 17.2407 5.86363 16.4282 5.86363C15.6157 5.86363 14.8845 6.19006 14.3592 6.78281C13.827 7.38281 13.567 8.19289 13.6279 9.06349C13.7445 10.7766 15.001 12.1704 16.4282 12.1704Z" fill="black"/>
<path d="M13.7608 13.5106C14.4754 13.1442 15.4028 12.9609 16.4278 12.9609C17.6246 12.9609 18.7869 13.2882 19.7009 13.8822C20.7373 14.5568 21.4344 15.539 21.7159 16.725C21.7571 16.8956 21.761 17.0737 21.7273 17.2461C21.6936 17.4185 21.6232 17.5806 21.5213 17.7204C21.4247 17.8506 21.3008 17.9558 21.1593 18.0279C21.0178 18.1 20.8625 18.1371 20.7052 18.1363H16.1958C16.1197 18.1363 16.046 18.1083 15.9876 18.0571C15.9292 18.006 15.8897 17.9349 15.8761 17.8564C15.8716 17.8295 15.866 17.8027 15.8595 17.7763C15.515 16.3248 14.7077 15.0984 13.515 14.2044C13.4711 14.1712 13.4358 14.1271 13.4123 14.076C13.3888 14.0249 13.3779 13.9685 13.3804 13.9118C13.3829 13.8552 13.3989 13.8001 13.4269 13.7515C13.4549 13.703 13.4939 13.6625 13.5406 13.6338C13.6044 13.5946 13.6775 13.5533 13.7608 13.5106Z" fill="black"/>
</svg>
