<svg width="24" height="24" viewBox="0 0 24 24" fill="none" xmlns="http://www.w3.org/2000/svg">
<path d="M20 8.72727V17.6364C20 18.9418 18.9418 20 17.6364 20H6.36364C5.05824 20 4 18.9418 4 17.6364V8.72727H20ZM8.17546 14.5465C7.67338 14.5465 7.26637 14.9535 7.26637 15.4556C7.26637 15.9576 7.67338 16.3647 8.17546 16.3647C8.67753 16.3647 9.08455 15.9576 9.08455 15.4556C9.08455 14.9535 8.67753 14.5465 8.17546 14.5465ZM11.9969 14.5465C11.4948 14.5465 11.0878 14.9535 11.0878 15.4556C11.0878 15.9576 11.4948 16.3647 11.9969 16.3647C12.499 16.3647 12.906 15.9576 12.906 15.4556C12.906 14.9535 12.499 14.5465 11.9969 14.5465ZM8.17546 10.9101C7.67338 10.9101 7.26637 11.3171 7.26637 11.8192C7.26637 12.3213 7.67338 12.7283 8.17546 12.7283C8.67753 12.7283 9.08455 12.3213 9.08455 11.8192C9.08455 11.3171 8.67753 10.9101 8.17546 10.9101ZM11.9969 10.9101C11.4948 10.9101 11.0878 11.3171 11.0878 11.8192C11.0878 12.3213 11.4948 12.7283 11.9969 12.7283C12.499 12.7283 12.906 12.3213 12.906 11.8192C12.906 11.3171 12.499 10.9101 11.9969 10.9101ZM15.8183 10.9101C15.3163 10.9101 14.9092 11.3171 14.9092 11.8192C14.9092 12.3213 15.3163 12.7283 15.8183 12.7283C16.3204 12.7283 16.7274 12.3213 16.7274 11.8192C16.7274 11.3171 16.3204 10.9101 15.8183 10.9101ZM17.6364 4C18.9418 4 20 5.05824 20 6.36364V7.63636H4V6.36364C4 5.05824 5.05824 4 6.36364 4H17.6364Z" fill="black"/>
</svg>
