<svg width="24" height="24" viewBox="0 0 24 24" fill="none" xmlns="http://www.w3.org/2000/svg">
<path d="M18.8862 12.851L12.6412 4.32312C12.4925 4.12047 12.2539 4 11.9999 4C11.7459 4 11.5073 4.12047 11.3589 4.32312L5.11413 12.8513C4.95643 13.0916 4.96261 13.402 5.12988 13.6356C5.29716 13.8693 5.59098 13.9801 5.87367 13.9149L8.93154 13.2109V18.9862C8.93122 19.5454 9.39171 19.9994 9.95954 19.9994L14.0405 20C14.6087 19.9994 15.0688 19.5454 15.0688 18.9859V13.2103L18.1264 13.9149C18.4088 13.98 18.7032 13.8696 18.8702 13.6356C19.0372 13.4016 19.0436 13.0913 18.8862 12.851Z" fill="black"/>
</svg>
