<svg width="24" height="24" viewBox="0 0 24 24" fill="none" xmlns="http://www.w3.org/2000/svg">
<path d="M10.8477 4.50195C10.9925 4.31706 11.2595 4.25798 11.4766 4.33008H11.4775L16.7227 6.08984C16.9801 6.17543 17.1627 6.45241 17.0283 6.73145L17.0234 6.74219L17.0166 6.75195L16.9854 6.80273L16.9785 6.8125L13.5908 11.5078L16.8516 12.5996H16.8506C17.108 12.6852 17.2907 12.9622 17.1562 13.2412C17.1259 13.304 17.0825 13.3566 17.0332 13.3984L16.9824 13.4365L7.65918 19.6055V19.6064C7.43767 19.7526 7.11576 19.7274 6.92871 19.5322C6.76706 19.3632 6.76015 19.1209 6.89648 18.9453H6.89551L10.2803 14.252L7.20996 13.2236V13.2227C6.95286 13.1368 6.77082 12.8609 6.90527 12.582V12.5811L10.7939 4.58887L10.8477 4.50195Z" fill="black" stroke="black" stroke-width="0.4"/>
</svg>
